# Blender v2.82 (sub 7) OBJ File: ''
# www.blender.org
mtllib 0422.mtl
o Cube
v 1.302192 1.781074 -0.921115
v 0.939038 -0.215417 -1.000000
v 2.080771 1.781074 0.921115
v 0.939038 -0.215417 1.000000
v -0.939038 1.899489 -1.000000
v -1.057453 -0.097002 -1.000000
v -0.939038 1.899489 1.000000
v -1.057453 -0.097002 1.000000
v 1.302192 1.781074 -0.921115
v 2.080771 1.781074 0.921115
v -0.939038 1.899489 -1.000000
v -0.939038 1.899489 1.000000
v 1.507928 3.025981 0.504959
v -0.463443 3.096950 0.556506
v 1.074066 3.017912 -0.520687
v -0.463087 3.104858 -0.574851
v -0.884103 3.119831 0.988868
v -0.884103 3.119831 -1.011132
v 1.357861 3.572426 0.418170
v -0.299242 3.632082 0.461499
v 0.993164 3.565644 -0.443972
v -0.298943 3.638730 -0.489502
v 1.997574 2.022445 0.696348
v 1.836124 1.790667 0.927506
v 1.407120 2.022445 -0.700752
v 1.051603 1.794314 -0.929935
v 1.884908 3.010950 0.919026
v 2.030778 2.760044 0.689620
v 1.440323 2.760044 -0.707480
v 1.100278 3.010526 -0.941240
v 1.120615 0.782828 -0.960558
v -0.998246 0.901243 1.000000
v 1.509905 0.782828 0.960558
v -0.998246 0.901243 -1.000000
v -0.939038 1.899489 0.000000
v -0.884103 3.119831 -0.011132
v 1.290997 3.021946 -0.007864
v -0.463265 3.100904 -0.009172
v 1.175513 3.569036 -0.012901
v -0.299092 3.635406 -0.014001
v 1.702347 2.022445 -0.002202
v 1.443864 1.792490 -0.001215
v 1.492593 3.010738 -0.011107
v 1.735551 2.760044 -0.008930
vt 0.576358 0.796642
vt 0.777717 0.843284
vt 0.625000 1.000000
vt 0.500000 1.000000
vt 0.500000 0.000000
vt 0.625000 0.000000
vt 0.625000 0.250000
vt 0.500000 0.250000
vt 0.125000 0.500000
vt 0.266336 0.500000
vt 0.375000 0.750000
vt 0.125000 0.750000
vt 0.445668 0.232225
vt 0.625000 -0.035550
vt 0.398862 0.819030
vt 0.386931 0.784515
vt 0.393539 0.141791
vt 0.625000 0.076493
vt 0.625000 0.363806
vt 0.445668 0.431903
vt 0.693282 0.603545
vt 0.641499 0.421733
vt 0.641499 0.421733
vt 0.693282 0.603545
vt 0.850780 0.401662
vt 0.753604 0.674326
vt 0.753604 0.674326
vt 0.850780 0.401662
vt 0.652952 0.379034
vt 0.875000 0.500000
vt 0.875000 0.500000
vt 0.653628 0.379402
vt 0.711853 0.589772
vt 0.770754 0.800509
vt 0.875000 0.315299
vt 0.875000 0.407649
vt 0.875000 0.315299
vt 0.875000 0.407649
vt 0.771165 0.799769
vt 0.722505 0.562368
vt 0.774212 0.809252
vt 0.709610 0.580921
vt 0.837468 0.464729
vt 0.691407 0.450410
vt 0.844124 0.433196
vt 0.722505 0.562368
vt 0.844124 0.433196
vt 0.837468 0.464729
vt 0.691407 0.450410
vt 0.745065 0.785356
vt 0.745065 0.785356
vt 0.770987 0.799425
vt 0.162078 0.207090
vt 0.375000 0.000000
vt 0.375000 0.250000
vt 0.375000 1.000000
vt 0.645009 0.352590
vn 0.0219 0.0128 0.9997
vn -0.9982 0.0592 0.0000
vn -0.0592 -0.9982 0.0000
vn 0.8986 -0.3387 -0.2789
vn 0.0280 0.0164 -0.9995
vn 0.9202 -0.0450 -0.3889
vn 0.0317 0.1653 0.9857
vn 0.0346 -0.0107 -0.9993
vn -0.0417 -0.9991 0.0075
vn -0.9990 0.0450 0.0000
vn 0.0377 0.9993 -0.0073
vn 0.0676 0.9972 -0.0315
vn 0.0562 0.9983 -0.0171
vn 0.0389 0.9992 0.0025
vn 0.0401 0.9992 -0.0081
vn 0.0430 0.1448 -0.9885
vn 0.9042 0.1873 -0.3839
vn -0.9559 0.2936 0.0018
vn 0.6402 -0.7187 -0.2713
vn 0.6880 0.6650 -0.2905
vn 0.5531 -0.0309 -0.8325
vn 0.8308 -0.0305 0.5557
vn 0.0259 0.0069 0.9996
vn 0.0450 0.9989 -0.0091
vn 0.0106 0.0185 -0.9998
vn 0.9317 -0.3512 -0.0925
vn 0.0096 0.0167 0.9998
vn 0.6887 0.6642 -0.2908
vn 0.6383 -0.7208 -0.2705
vn 0.0505 0.9987 -0.0102
vn 0.0509 0.9987 0.0025
vn 0.0426 0.9989 -0.0209
vn -0.0486 -0.9988 0.0089
usemtl Material.001
s off
f 33/1/1 3/2/1 7/3/1 32/4/1
f 32/5/2 7/6/2 5/7/2 34/8/2
f 6/9/3 2/10/3 4/11/3 8/12/3
f 31/13/4 1/14/4 3/15/4 33/16/4
f 34/17/5 5/18/5 1/19/5 31/20/5
f 41/21/6 25/22/6 29/23/6 44/24/6
f 14/25/7 13/26/7 19/27/7 20/28/7
f 26/29/8 11/30/8 18/31/8 30/32/8
f 42/33/9 24/34/9 12/35/9 35/36/9
f 35/36/10 12/35/10 17/37/10 36/38/10
f 13/26/11 14/25/11 17/37/11 27/39/11
f 37/40/12 13/26/12 27/41/12 43/42/12
f 16/43/13 15/44/13 30/32/13 18/31/13
f 38/45/14 16/43/14 18/31/14 36/38/14
f 39/46/15 40/47/15 20/28/15 19/27/15
f 15/44/16 16/43/16 22/48/16 21/49/16
f 37/40/17 15/44/17 21/49/17 39/46/17
f 38/45/18 14/25/18 20/28/18 40/47/18
f 41/21/19 23/50/19 24/34/19 42/33/19
f 43/42/20 27/41/20 28/51/20 44/24/20
f 26/29/21 30/32/21 29/23/21 25/22/21
f 27/52/22 24/34/22 23/50/22 28/51/22
f 12/35/23 24/34/23 27/52/23 17/37/23
f 3/15/24 1/14/24 5/18/24 7/6/24
f 6/53/25 34/17/25 31/20/25 2/10/25
f 2/10/26 31/13/26 33/16/26 4/11/26
f 8/54/2 32/5/2 34/8/2 6/55/2
f 4/11/27 33/1/27 32/4/27 8/56/27
f 30/57/28 43/42/28 44/24/28 29/23/28
f 25/22/29 41/21/29 42/33/29 26/29/29
f 16/43/18 38/45/18 40/47/18 22/48/18
f 13/26/17 37/40/17 39/46/17 19/27/17
f 21/49/30 22/48/30 40/47/30 39/46/30
f 14/25/31 38/45/31 36/38/31 17/37/31
f 15/44/32 37/40/32 43/42/32 30/57/32
f 11/30/10 35/36/10 36/38/10 18/31/10
f 26/29/33 42/33/33 35/36/33 11/30/33
f 23/50/6 41/21/6 44/24/6 28/51/6
l 9 10
