# Blender v2.82 (sub 7) OBJ File: 'virtual-museum.blend'
# www.blender.org
mtllib kiki-museum-2.mtl
o Icosphere.001
v -5.631118 -1.245560 0.286623
v -5.033516 -0.789030 0.720801
v -5.859377 -0.789030 0.989144
v -6.369800 -0.789030 0.286623
v -5.859377 -0.789030 -0.415899
v -5.033516 -0.789030 -0.147556
v -2.946708 2.172006 1.737981
v -6.228720 -0.050344 0.720801
v -6.228720 -0.050344 -0.147556
v -5.402859 -0.050344 -0.415899
v -2.436285 2.131057 -0.500799
v -3.174967 2.587587 -0.500799
v -3.344358 0.478671 -0.312062
v -5.033516 -0.789030 0.286623
v -3.990112 0.478671 1.642394
v -2.695050 1.112521 -0.617462
v -4.384208 -0.155180 0.415401
v -3.734900 0.478671 -0.324177
v -2.691497 1.746372 1.031594
v -3.557009 0.076291 1.051829
v -4.059554 0.161746 0.045612
v -2.054142 -0.164956 0.512931
v -2.650540 -0.545120 -0.037693
v -3.299847 -1.178971 0.595995
v -2.453492 -0.228195 0.904092
v -3.598895 2.736560 1.116644
v -5.984596 1.372133 0.916873
v -3.827154 3.577776 -0.304727
vn 0.1876 -0.7947 0.5774
vn 0.6071 -0.7947 0.0000
vn -0.4911 -0.7947 0.3568
vn -0.4911 -0.7947 -0.3568
vn 0.1876 -0.7947 -0.5774
vn -0.2205 -0.0878 -0.9714
vn -0.2143 -0.1788 0.9603
vn -0.7946 -0.1876 0.5774
vn -0.7946 -0.1876 -0.5774
vn 0.3035 -0.1876 -0.9342
vn 0.9108 -0.3861 0.1464
vn -0.3796 0.1423 0.9141
vn -0.9822 0.1876 0.0000
vn -0.3035 0.1876 -0.9342
vn 0.1255 -0.2285 -0.9654
vn 0.7139 0.6840 0.1502
vn -0.4713 0.0633 -0.8797
vn -0.6537 0.7567 0.0000
vn -0.3011 0.2245 -0.9268
vn -0.0131 -0.0211 -0.9997
vn 0.4078 -0.2917 -0.8653
vn -0.3041 -0.3245 -0.8957
vn 0.6985 -0.7156 0.0000
vn 0.4311 -0.8506 0.3010
vn 0.6794 -0.3994 0.6156
vn 0.6313 -0.7653 0.1254
vn 0.3307 0.7335 0.5938
vn -0.2408 -0.3745 0.8954
vn -0.3201 -0.4618 -0.8272
vn -0.4598 0.7299 0.5058
vn 0.7409 0.6582 0.1336
vn -0.2930 0.1422 0.9455
g Icosphere.001_Icosphere.001_Material.002
usemtl Material.002
s off
f 1//1 2//1 3//1
f 2//2 1//2 6//2 14//2
f 1//3 3//3 4//3
f 1//4 4//4 5//4
f 1//5 5//5 6//5
f 21//6 18//6 11//6 16//6
f 3//7 2//7 15//7 7//7
f 4//8 3//8 8//8
f 5//9 4//9 9//9
f 6//10 5//10 10//10
f 20//11 16//11 11//11 19//11
f 3//12 7//12 8//12
f 4//13 8//13 9//13
f 5//14 9//14 10//14
f 6//15 10//15 11//15 18//15
f 7//16 19//16 11//16 12//16
f 12//17 8//17 27//17 28//17
f 9//18 8//18 12//18
f 10//19 9//19 12//19
f 11//20 10//20 12//20
f 13//21 16//21 22//21 23//21
f 17//22 21//22 16//22 13//22
f 2//23 14//23 21//23 17//23
f 2//24 17//24 20//24 15//24
f 15//25 20//25 19//25 7//25
f 14//23 6//23 18//23 21//23
f 24//26 23//26 22//26 25//26
f 16//27 20//27 25//27 22//27
f 20//28 17//28 24//28 25//28
f 17//29 13//29 23//29 24//29
f 27//30 26//30 28//30
f 7//31 12//31 28//31 26//31
f 8//32 7//32 26//32 27//32
