{
    "asset" : {
        "generator" : "Khronos glTF Blender I/O v1.1.46",
        "version" : "2.0"
    },
    "scene" : 0,
    "scenes" : [
        {
            "name" : "Scene",
            "nodes" : [
                0,
                1,
                2,
                3
            ]
        }
    ],
    "nodes" : [
        {
            "name" : "Light",
            "rotation" : [
                0.16907575726509094,
                0.7558803558349609,
                -0.27217137813568115,
                0.570947527885437
            ],
            "translation" : [
                -7.971826076507568,
                5.508654594421387,
                2.35784912109375
            ]
        },
        {
            "name" : "Camera",
            "rotation" : [
                0.483536034822464,
                0.33687159419059753,
                -0.20870360732078552,
                0.7804827094078064
            ],
            "translation" : [
                7.358891487121582,
                4.958309173583984,
                6.925790786743164
            ]
        },
        {
            "mesh" : 0,
            "name" : "Icosphere.001",
            "scale" : [
                0.825873613357544,
                0.825873613357544,
                0.825873613357544
            ],
            "translation" : [
                -5.631117820739746,
                -0.41968685388565063,
                0.2866225838661194
            ]
        },
        {
            "mesh" : 1,
            "name" : "Icosphere.002",
            "translation" : [
                -5.911929607391357,
                0,
                0
            ]
        }
    ],
    "materials" : [
        {
            "doubleSided" : true,
            "emissiveFactor" : [
                0,
                0,
                0
            ],
            "name" : "Material.002",
            "pbrMetallicRoughness" : {
                "baseColorFactor" : [
                    0.8000000715255737,
                    0.21288514137268066,
                    0.6007115244865417,
                    1
                ],
                "metallicFactor" : 1,
                "roughnessFactor" : 0
            }
        },
        {
            "doubleSided" : true,
            "emissiveFactor" : [
                0,
                0,
                0
            ],
            "name" : "Material.001",
            "pbrMetallicRoughness" : {
                "baseColorFactor" : [
                    0.8000000715255737,
                    0.7140697240829468,
                    0.4193853437900543,
                    1
                ],
                "metallicFactor" : 0.8974359035491943,
                "roughnessFactor" : 0.1410256326198578
            }
        }
    ],
    "meshes" : [
        {
            "name" : "Icosphere.001",
            "primitives" : [
                {
                    "attributes" : {
                        "POSITION" : 0,
                        "NORMAL" : 1
                    },
                    "indices" : 2,
                    "material" : 0
                }
            ]
        },
        {
            "name" : "Icosphere.002",
            "primitives" : [
                {
                    "attributes" : {
                        "POSITION" : 3,
                        "NORMAL" : 4
                    },
                    "indices" : 5,
                    "material" : 1
                }
            ]
        }
    ],
    "accessors" : [
        {
            "bufferView" : 0,
            "componentType" : 5126,
            "count" : 118,
            "max" : [
                4.331142425537109,
                4.8402838706970215,
                1.7573610544204712
            ],
            "min" : [
                -0.8944249749183655,
                -1,
                -1.094700813293457
            ],
            "type" : "VEC3"
        },
        {
            "bufferView" : 1,
            "componentType" : 5126,
            "count" : 118,
            "type" : "VEC3"
        },
        {
            "bufferView" : 2,
            "componentType" : 5123,
            "count" : 156,
            "type" : "SCALAR"
        },
        {
            "bufferView" : 3,
            "componentType" : 5126,
            "count" : 944,
            "max" : [
                4.538918495178223,
                4.632603645324707,
                2.6735284328460693
            ],
            "min" : [
                -1.0119788646697998,
                -1.1314315795898438,
                -1.260088324546814
            ],
            "type" : "VEC3"
        },
        {
            "bufferView" : 4,
            "componentType" : 5126,
            "count" : 944,
            "type" : "VEC3"
        },
        {
            "bufferView" : 5,
            "componentType" : 5123,
            "count" : 1416,
            "type" : "SCALAR"
        }
    ],
    "bufferViews" : [
        {
            "buffer" : 0,
            "byteLength" : 1416,
            "byteOffset" : 0
        },
        {
            "buffer" : 0,
            "byteLength" : 1416,
            "byteOffset" : 1416
        },
        {
            "buffer" : 0,
            "byteLength" : 312,
            "byteOffset" : 2832
        },
        {
            "buffer" : 0,
            "byteLength" : 11328,
            "byteOffset" : 3144
        },
        {
            "buffer" : 0,
            "byteLength" : 11328,
            "byteOffset" : 14472
        },
        {
            "buffer" : 0,
            "byteLength" : 2832,
            "byteOffset" : 25800
        }
    ],
    "buffers" : [
        {
            "byteLength" : 28632,
            "uri" : "data:application/octet-stream;base64,"
        }
    ]
}
